<svg id="Layer_1" data-name="Layer 1" xmlns="http://www.w3.org/2000/svg" xmlns:xlink="http://www.w3.org/1999/xlink" viewBox="0 0 1012 262" width="300">
			<defs>
				<clipPath id="clip-path">
					<path d="M101.3,103.43c28.16,1.37,46.24-11.8,56.74-37C163,54.64,171,45.3,180.28,36.82,194.09,24.21,211,18.6,229,17c24.58-2.18,48.42.5,70.67,13.06,16.16,9.12,34.5,11,52.73,11.1,39,.33,261.06-.31,291.66.15,27.64.43,53.56-4.11,79.39-15.76,31.86-14.38,65.6-12.81,97.2,3.28,13.88,7.06,24.18,18.84,31,33.28,2.77,5.86,6,11.52,9.34,17.11,9.56,16.06,24,23.36,42.45,23.93,27.6.85,53.62.84,80.44,1.21,16.18.22,27.46,10.55,27.82,25.55.36,15.55-10.48,26.68-27.09,27.08-24.91.6-49.86,1.65-74.74.93-27.19-.79-43.9,12.11-55.51,35.59-5.39,10.92-13.2,21.05-21.55,30C819.31,237.92,800.86,242,782,244c-25.41,2.67-49.27-1.51-72.08-13.88-15.72-8.53-33.68-9.89-51.37-9.9-36.84,0-280-.14-305.48-.06-22.86.06-43.73,6.66-64.63,16.08-32.56,14.66-66,13.22-97.56-4-13.38-7.29-23.6-18.72-30.29-32.91a197.1,197.1,0,0,0-9.78-17.79c-9.69-16.08-24.47-23.06-42.79-23.35-26.81-.42-53.62-.66-80.43-1.17-20.3-.39-32.86-19.24-24.75-37.43,3.85-8.65,10.59-14.53,20.5-15C31.63,104.25,86,104,101.3,103.43Z" fill="none"/>
				</clipPath>
			</defs>
			<path d="M101.16,103.44h.3c28.06,1.31,46.1-11.86,56.58-37C163,54.64,171,45.3,180.28,36.82,194.09,24.21,211,18.6,229,17c24.58-2.18,48.42.5,70.67,13.06,16.16,9.12,34.5,11,52.73,11.1,39,.33,261.06-.31,291.66.15,27.64.43,53.56-4.11,79.39-15.76,31.86-14.38,65.6-12.81,97.2,3.28,13.88,7.06,24.18,18.84,31,33.28,2.77,5.86,6,11.52,9.34,17.11,9.56,16.06,24,23.6,42.45,23.93q40.22.72,80.44,1.21c16.18.22,27.46,10.55,27.82,25.55.36,15.55-10.48,26.68-27.09,27.08-24.91.6-49.86,1.65-74.74.93-27.19-.79-43.9,12.11-55.51,35.59-5.39,10.92-13.2,21.05-21.55,30C819.31,237.92,800.86,242,782,244c-25.41,2.67-49.27-1.51-72.08-13.88-15.72-8.53-33.68-9.89-51.37-9.9-36.84,0-280-.14-305.48-.06-22.86.06-43.73,6.66-64.63,16.08-32.56,14.66-66,13.22-97.56-4-13.38-7.29-23.6-18.72-30.29-32.91a197.1,197.1,0,0,0-9.78-17.79c-9.69-16.08-24.47-23.06-42.79-23.35-26.81-.42-53.62-.66-80.43-1.17-20.3-.39-32.86-19.24-24.75-37.43C6.68,111,14,106,23.33,104.64,31.53,103.44,86,105,101.16,103.44Z" fill="#d4b598"/>
			<g clip-path="url(#clip-path)">
				<rect x="212.67" width="52.08" height="261.68" rx="4.28" fill="#000" id="banda-1"/>
				<rect x="358.05" y="29.62" width="52.08" height="202.43" rx="2.46" fill="#000" id="banda-2"/>
				<rect x="505.61" y="27.16" width="52.08" height="204.9" rx="2.46" fill="#000" id="banda-3"/>
				<rect x="746.47" width="52.08" height="261.68" rx="4.28" fill="#724729" id="banda-4"/>
			</g>
			<path d="M27.08,104H76.92a0,0,0,0,1,0,0v54a0,0,0,0,1,0,0H27.08a27,27,0,0,1-27-27v0a27,27,0,0,1,27-27Z" fill="#b6b6b6"/>
			<path d="M962.08,104h49.85a0,0,0,0,1,0,0v54a0,0,0,0,1,0,0H962.08a27,27,0,0,1-27-27v0a27,27,0,0,1,27-27Z" transform="translate(1947 262) rotate(-180)" fill="#b6b6b6"/>
		</svg>